<?xml version="1.0" encoding="UTF-8"?>
<!DOCTYPE svg PUBLIC "-//W3C//DTD SVG 1.1//EN" "http://www.w3.org/Graphics/SVG/1.1/DTD/svg11.dtd">
<!-- Creator: CorelDRAW -->
<svg xmlns="http://www.w3.org/2000/svg" xml:space="preserve" width="450mm" height="450mm" style="shape-rendering:geometricPrecision; text-rendering:geometricPrecision; image-rendering:optimizeQuality; fill-rule:evenodd; clip-rule:evenodd"
viewBox="0 0 450 450">
 <defs>
  <style type="text/css">
   <![CDATA[
    .str0 {stroke:#ADAFB2;stroke-width:0.0762;stroke-linejoin:bevel}
    .fil0 {fill:none}
   ]]>
  </style>
 </defs>
 <g id="_0">
  <metadata id="CorelCorpID_0Corel-Layer"/>
  <g id="_103523200">
   <path id="_105254432" class="fil0 str0" d="M57.5001 214.94l0 0m0 -153l0 0m0 153l0 -153m0 153l0 -153m0 153l0 -153m0 153l0 -153m0 153l0 -153m0 153l0 -153m0 153l0 -153m0 153l0 -153m0 153l0 -153m0 153l0 -153m0 153l0 -153m0 153l0 -153m0 153l0 -153m0 153l0 -153m0 153l0 -153m0 153l0 -153m0 153l0 -153m0 153l0 -153m0 153l0 -153m0 153l0 -153m0 153l0 -153"/>
   <path id="_105254168" class="fil0 str0" d="M63.5001 55.94l0 0m323 0l0 0m-323 0l323 0m-323 0l323 0m-323 0l323 0m-323 0l323 0m-323 0l323 0m-323 0l323 0m-323 0l323 0m-323 0l323 0m-323 0l323 0m-323 0l323 0m-323 0l323 0m-323 0l323 0m-323 0l323 0m-323 0l323 0m-323 0l323 0m-323 0l323 0m-323 0l323 0m-323 0l323 0m-323 0l323 0m-323 0l323 0m-323 0l323 0"/>
   <path id="_105253688" class="fil0 str0" d="M392.5 61.94l0 0m0 153l0 0m0 -153l0 153m0 -153l0 153m0 -153l0 153m0 -153l0 153m0 -153l0 153m0 -153l0 153m0 -153l0 153m0 -153l0 153m0 -153l0 153m0 -153l0 153m0 -153l0 153m0 -153l0 153m0 -153l0 153m0 -153l0 153m0 -153l0 153m0 -153l0 153m0 -153l0 153m0 -153l0 153m0 -153l0 153m0 -153l0 153m0 -153l0 153"/>
   <path id="_105254264" class="fil0 str0" d="M386.5 220.94l0 0m-323 0l0 0m323 0l-323 0m323 0l-323 0m323 0l-323 0m323 0l-323 0m323 0l-323 0m323 0l-323 0m323 0l-323 0m323 0l-323 0m323 0l-323 0m323 0l-323 0m323 0l-323 0m323 0l-323 0m323 0l-323 0m323 0l-323 0m323 0l-323 0m323 0l-323 0m323 0l-323 0m323 0l-323 0m323 0l-323 0m323 0l-323 0m323 0l-323 0"/>
   <path id="_105254288" class="fil0 str0" d="M268.5 138.44c0,-24.0244 -19.4756,-43.5 -43.5,-43.5 -24.0243,-0.0001 -43.4999,19.4755 -43.4999,43.4998 -0.0001,24.0244 19.4754,43.5001 43.4998,43.5001 24.0242,0.0001 43.4999,-19.4754 43.5,-43.4997z"/>
   <path id="_105254096" class="fil0 str0" d="M147.25 138.44c0,-19.8823 -16.1178,-36 -36,-36 -19.8822,-0.0001 -36,16.1176 -36,35.9999 -0.0001,19.8822 16.1176,36 35.9998,36 19.8822,0.0001 36,-16.1175 36.0001,-35.9998z"/>
   <path id="_105253712" class="fil0 str0" d="M374.75 138.44c0,-19.8823 -16.1178,-36 -36,-36 -19.8822,-0.0001 -36,16.1176 -36,35.9999 -0.0001,19.8822 16.1176,36 35.9998,36 19.8822,0.0001 36,-16.1175 36.0001,-35.9998z"/>
   <path id="_105254384" class="fil0 str0" d="M63.5001 55.9401c-1.5913,0 -3.1175,0.6321 -4.2427,1.7573 -1.1252,1.1252 -1.7573,2.6514 -1.7573,4.2427"/>
   <path id="_105253832" class="fil0 str0" d="M57.5001 214.94c0,1.5912 0.6321,3.1174 1.7573,4.2426 1.1252,1.1252 2.6514,1.7574 4.2427,1.7574"/>
   <path id="_105253808" class="fil0 str0" d="M386.5 220.94c3.3136,0 5.9999,-2.6863 5.9999,-6"/>
   <path id="_105254024" class="fil0 str0" d="M392.5 61.9401c0,-3.3137 -2.6863,-6 -6,-6"/>
   <path id="_103522504" class="fil0 str0" d="M116.25 80.9401c0,-2.6234 -2.1267,-4.75 -4.75,-4.75 -2.6234,-0.0001 -4.75,2.1266 -4.75,4.7499 -0.0001,2.6234 2.1266,4.75 4.7499,4.7501 2.6234,0 4.75,-2.1267 4.75,-4.75z"/>
   <path id="_105278768" class="fil0 str0" d="M229.75 80.9401c0,-2.6234 -2.1267,-4.75 -4.75,-4.75 -2.6233,-0.0001 -4.7499,2.1266 -4.7499,4.7499 -0.0001,2.6234 2.1266,4.75 4.7499,4.7501 2.6233,0 4.7499,-2.1267 4.7499,-4.75z"/>
   <path id="_105278792" class="fil0 str0" d="M343.5 80.9401c0,-2.6234 -2.1267,-4.75 -4.75,-4.75 -2.6234,-0.0001 -4.75,2.1266 -4.75,4.7499 -0.0001,2.6234 2.1266,4.75 4.7499,4.7501 2.6234,0 4.75,-2.1267 4.75,-4.75z"/>
   <path id="_105278816" class="fil0 str0" d="M376 193.94c0,-6.9036 -5.5965,-12.5 -12.5,-12.5 -6.9036,-0.0001 -12.5,5.5964 -12.5,12.4999 -0.0001,6.9036 5.5963,12.5 12.4999,12.5001 6.9036,0 12.5,-5.5964 12.5,-12.5z"/>
   <path id="_105278432" class="fil0 str0" d="M374 75.9401c0,-1.933 -1.5671,-3.5 -3.5,-3.5 -1.933,-0.0001 -3.5,1.5669 -3.5,3.4999 -0.0001,1.933 1.5669,3.5 3.4999,3.5001 1.933,0 3.5,-1.567 3.5,-3.5z"/>
   <path id="_105278864" class="fil0 str0" d="M370 255.53l0 0m0 115l0 0m0 -115l0 115m0 -115l0 115m0 -115l0 115m0 -115l0 115m0 -115l0 115m0 -115l0 115m0 -115l0 115m0 -115l0 115m0 -115l0 115m0 -115l0 115m0 -115l0 115m0 -115l0 115m0 -115l0 115m0 -115l0 115m0 -115l0 115m0 -115l0 115m0 -115l0 115m0 -115l0 115m0 -115l0 115m0 -115l0 115m0 -115l0 115"/>
   <path id="_105278528" class="fil0 str0" d="M370 370.53l0 0m-145 0l0 0m145 0l-145 0m145 0l-145 0m145 0l-145 0m145 0l-145 0m145 0l-145 0m145 0l-145 0m145 0l-145 0m145 0l-145 0m145 0l-145 0m145 0l-145 0m145 0l-145 0m145 0l-145 0m145 0l-145 0m145 0l-145 0m145 0l-145 0m145 0l-145 0m145 0l-145 0m145 0l-145 0m145 0l-145 0m145 0l-145 0m145 0l-145 0"/>
   <path id="_105278912" class="fil0 str0" d="M80.0001 255.53l0 0m0 115l0 0m0 -115l0 115m0 -115l0 115m0 -115l0 115m0 -115l0 115m0 -115l0 115m0 -115l0 115m0 -115l0 115m0 -115l0 115m0 -115l0 115m0 -115l0 115m0 -115l0 115m0 -115l0 115m0 -115l0 115m0 -115l0 115m0 -115l0 115m0 -115l0 115m0 -115l0 115m0 -115l0 115m0 -115l0 115m0 -115l0 115m0 -115l0 115"/>
   <path id="_105278672" class="fil0 str0" d="M80.0001 370.53l0 0m145 0l0 0m-145 0l145 0m-145 0l145 0m-145 0l145 0m-145 0l145 0m-145 0l145 0m-145 0l145 0m-145 0l145 0m-145 0l145 0m-145 0l145 0m-145 0l145 0m-145 0l145 0m-145 0l145 0m-145 0l145 0m-145 0l145 0m-145 0l145 0m-145 0l145 0m-145 0l145 0m-145 0l145 0m-145 0l145 0m-145 0l145 0m-145 0l145 0"/>
   <path id="_105278960" class="fil0 str0" d="M123.25 276.63c0,-6.6275 -5.3726,-12 -12,-12 -6.6274,-0.0001 -12,5.3725 -12,11.9999 -0.0001,6.6274 5.3725,12 11.9999,12.0001 6.6274,0 12,-5.3726 12,-12z"/>
   <path id="_105278600" class="fil0 str0" d="M237 276.63c0,-6.6275 -5.3726,-12 -12,-12 -6.6273,-0.0001 -11.9999,5.3725 -11.9999,11.9999 -0.0001,6.6274 5.3725,12 11.9999,12.0001 6.6273,0 11.9999,-5.3726 11.9999,-12z"/>
   <path id="_105278696" class="fil0 str0" d="M350.75 276.63c0,-6.6275 -5.3726,-12 -12,-12 -6.6274,-0.0001 -12,5.3725 -12,11.9999 -0.0001,6.6274 5.3725,12 11.9999,12.0001 6.6274,0 12,-5.3726 12,-12z"/>
   <path id="_105279248" class="fil0 str0" d="M106.251 255.53c-0.0363,1.8098 0.9086,3.4978 2.4701,4.4133 1.5616,0.9155 3.4961,0.9155 5.0576,0 1.5616,-0.9155 2.5064,-2.6035 2.4703,-4.4133"/>
   <path id="_105279080" class="fil0 str0" d="M220.001 255.53c-0.0363,1.8098 0.9086,3.4978 2.4701,4.4133 1.5616,0.9155 3.496,0.9155 5.0575,0 1.5616,-0.9155 2.5064,-2.6035 2.4703,-4.4133"/>
   <path id="_105090896" class="fil0 str0" d="M333.751 255.53c-0.0363,1.8098 0.9086,3.4978 2.4701,4.4133 1.5616,0.9155 3.4961,0.9155 5.0576,0 1.5616,-0.9155 2.5064,-2.6035 2.4703,-4.4133"/>
   <path id="_105090848" class="fil0 str0" d="M112.851 60.9401c0,-0.8841 -0.7167,-1.6008 -1.6007,-1.6008 -0.8841,0 -1.6008,0.7167 -1.6008,1.6007 0,0.8841 0.7167,1.6008 1.6007,1.6008 0.8841,0 1.6008,-0.7167 1.6008,-1.6007z"/>
   <path id="_105090872" class="fil0 str0" d="M226.601 60.9401c0,-0.8841 -0.7167,-1.6008 -1.6007,-1.6008 -0.884,0 -1.6007,0.7167 -1.6007,1.6007 0,0.8841 0.7167,1.6008 1.6007,1.6008 0.884,0 1.6007,-0.7167 1.6007,-1.6007z"/>
   <path id="_105090992" class="fil0 str0" d="M340.351 60.9401c0,-0.8841 -0.7167,-1.6008 -1.6007,-1.6008 -0.8841,0 -1.6008,0.7167 -1.6008,1.6007 0,0.8841 0.7167,1.6008 1.6007,1.6008 0.8841,0 1.6008,-0.7167 1.6008,-1.6007z"/>
   <path id="_105090560" class="fil0 str0" d="M340.351 215.94c0,-0.8841 -0.7167,-1.6008 -1.6007,-1.6008 -0.8841,0 -1.6008,0.7167 -1.6008,1.6007 0,0.8841 0.7167,1.6008 1.6007,1.6008 0.8841,0 1.6008,-0.7167 1.6008,-1.6007z"/>
   <path id="_105090128" class="fil0 str0" d="M226.601 215.94c0,-0.8841 -0.7167,-1.6008 -1.6007,-1.6008 -0.884,0 -1.6007,0.7167 -1.6007,1.6007 0,0.8841 0.7167,1.6008 1.6007,1.6008 0.884,0 1.6007,-0.7167 1.6007,-1.6007z"/>
   <path id="_105090200" class="fil0 str0" d="M112.85 215.94c0,-0.8837 -0.7164,-1.6 -1.6,-1.6 -0.8837,-0.0001 -1.6,0.7163 -1.6,1.5999 -0.0001,0.8837 0.7163,1.6 1.5999,1.6001 0.8837,0 1.6,-0.7164 1.6,-1.6z"/>
   <path id="_105090584" class="fil0 str0" d="M168.125 313.03l0 0m0 -30l0 0m0 30l0 -30m0 30l0 -30m0 30l0 -30m0 30l0 -30m0 30l0 -30m0 30l0 -30m0 30l0 -30m0 30l0 -30m0 30l0 -30m0 30l0 -30m0 30l0 -30m0 30l0 -30m0 30l0 -30m0 30l0 -30m0 30l0 -30m0 30l0 -30m0 30l0 -30m0 30l0 -30m0 30l0 -30m0 30l0 -30m0 30l0 -30"/>
   <path id="_105090776" class="fil0 str0" d="M168.125 283.03l0 0m10 0l0 0m-10 0l10 0m-10 0l10 0m-10 0l10 0m-10 0l10 0m-10 0l10 0m-10 0l10 0m-10 0l10 0m-10 0l10 0m-10 0l10 0m-10 0l10 0m-10 0l10 0m-10 0l10 0m-10 0l10 0m-10 0l10 0m-10 0l10 0m-10 0l10 0m-10 0l10 0m-10 0l10 0m-10 0l10 0m-10 0l10 0m-10 0l10 0"/>
   <path id="_105090104" class="fil0 str0" d="M178.125 283.03l0 0m0 30l0 0m0 -30l0 30m0 -30l0 30m0 -30l0 30m0 -30l0 30m0 -30l0 30m0 -30l0 30m0 -30l0 30m0 -30l0 30m0 -30l0 30m0 -30l0 30m0 -30l0 30m0 -30l0 30m0 -30l0 30m0 -30l0 30m0 -30l0 30m0 -30l0 30m0 -30l0 30m0 -30l0 30m0 -30l0 30m0 -30l0 30m0 -30l0 30"/>
   <path id="_105090032" class="fil0 str0" d="M178.125 313.03l0 0m-10 0l0 0m10 0l-10 0m10 0l-10 0m10 0l-10 0m10 0l-10 0m10 0l-10 0m10 0l-10 0m10 0l-10 0m10 0l-10 0m10 0l-10 0m10 0l-10 0m10 0l-10 0m10 0l-10 0m10 0l-10 0m10 0l-10 0m10 0l-10 0m10 0l-10 0m10 0l-10 0m10 0l-10 0m10 0l-10 0m10 0l-10 0m10 0l-10 0"/>
   <path id="_105090704" class="fil0 str0" d="M281.875 313.03l0 0m0 30l0 0m0 -30l0 30m0 -30l0 30m0 -30l0 30m0 -30l0 30m0 -30l0 30m0 -30l0 30m0 -30l0 30m0 -30l0 30m0 -30l0 30m0 -30l0 30m0 -30l0 30m0 -30l0 30m0 -30l0 30m0 -30l0 30m0 -30l0 30m0 -30l0 30m0 -30l0 30m0 -30l0 30m0 -30l0 30m0 -30l0 30m0 -30l0 30"/>
   <path id="_105090464" class="fil0 str0" d="M281.875 343.03l0 0m-10 0l0 0m10 0l-10 0m10 0l-10 0m10 0l-10 0m10 0l-10 0m10 0l-10 0m10 0l-10 0m10 0l-10 0m10 0l-10 0m10 0l-10 0m10 0l-10 0m10 0l-10 0m10 0l-10 0m10 0l-10 0m10 0l-10 0m10 0l-10 0m10 0l-10 0m10 0l-10 0m10 0l-10 0m10 0l-10 0m10 0l-10 0m10 0l-10 0"/>
   <path id="_105090536" class="fil0 str0" d="M271.875 343.03l0 0m0 -30l0 0m0 30l0 -30m0 30l0 -30m0 30l0 -30m0 30l0 -30m0 30l0 -30m0 30l0 -30m0 30l0 -30m0 30l0 -30m0 30l0 -30m0 30l0 -30m0 30l0 -30m0 30l0 -30m0 30l0 -30m0 30l0 -30m0 30l0 -30m0 30l0 -30m0 30l0 -30m0 30l0 -30m0 30l0 -30m0 30l0 -30m0 30l0 -30"/>
   <path id="_105121208" class="fil0 str0" d="M271.875 313.03l0 0m10 0l0 0m-10 0l10 0m-10 0l10 0m-10 0l10 0m-10 0l10 0m-10 0l10 0m-10 0l10 0m-10 0l10 0m-10 0l10 0m-10 0l10 0m-10 0l10 0m-10 0l10 0m-10 0l10 0m-10 0l10 0m-10 0l10 0m-10 0l10 0m-10 0l10 0m-10 0l10 0m-10 0l10 0m-10 0l10 0m-10 0l10 0m-10 0l10 0"/>
   <path id="_105121304" class="fil0 str0" d="M57.5 388.06l0 0m0 -153l0 0m0 153l0 -153m0 153l0 -153m0 153l0 -153m0 153l0 -153m0 153l0 -153m0 153l0 -153m0 153l0 -153m0 153l0 -153m0 153l0 -153m0 153l0 -153m0 153l0 -153m0 153l0 -153m0 153l0 -153m0 153l0 -153m0 153l0 -153m0 153l0 -153m0 153l0 -153m0 153l0 -153m0 153l0 -153m0 153l0 -153m0 153l0 -153"/>
   <path id="_105121448" class="fil0 str0" d="M63.5 229.06l0 0m323 0l0 0m-323 0l323 0m-323 0l323 0m-323 0l323 0m-323 0l323 0m-323 0l323 0m-323 0l323 0m-323 0l323 0m-323 0l323 0m-323 0l323 0m-323 0l323 0m-323 0l323 0m-323 0l323 0m-323 0l323 0m-323 0l323 0m-323 0l323 0m-323 0l323 0m-323 0l323 0m-323 0l323 0m-323 0l323 0m-323 0l323 0m-323 0l323 0"/>
   <path id="_105121112" class="fil0 str0" d="M392.5 235.06l0 0m0 153l0 0m0 -153l0 153m0 -153l0 153m0 -153l0 153m0 -153l0 153m0 -153l0 153m0 -153l0 153m0 -153l0 153m0 -153l0 153m0 -153l0 153m0 -153l0 153m0 -153l0 153m0 -153l0 153m0 -153l0 153m0 -153l0 153m0 -153l0 153m0 -153l0 153m0 -153l0 153m0 -153l0 153m0 -153l0 153m0 -153l0 153m0 -153l0 153"/>
   <path id="_105121712" class="fil0 str0" d="M386.5 394.06l0 0m-323 0l0 0m323 0l-323 0m323 0l-323 0m323 0l-323 0m323 0l-323 0m323 0l-323 0m323 0l-323 0m323 0l-323 0m323 0l-323 0m323 0l-323 0m323 0l-323 0m323 0l-323 0m323 0l-323 0m323 0l-323 0m323 0l-323 0m323 0l-323 0m323 0l-323 0m323 0l-323 0m323 0l-323 0m323 0l-323 0m323 0l-323 0m323 0l-323 0"/>
   <path id="_105121496" class="fil0 str0" d="M63.5 229.06c-1.5912,0 -3.1174,0.6321 -4.2426,1.7573 -1.1252,1.1252 -1.7574,2.6514 -1.7574,4.2427"/>
   <path id="_105121400" class="fil0 str0" d="M57.5 388.06c0,1.5912 0.6322,3.1174 1.7574,4.2426 1.1252,1.1252 2.6514,1.7574 4.2426,1.7574"/>
   <path id="_105121280" class="fil0 str0" d="M386.5 394.06c3.3137,0 6,-2.6863 6,-6"/>
   <path id="_105121256" class="fil0 str0" d="M392.5 235.06c0,-3.3137 -2.6862,-6 -5.9999,-6"/>
   <path id="_105121568" class="fil0 str0" d="M112.851 234.06c0,-0.8841 -0.7167,-1.6008 -1.6007,-1.6008 -0.8841,0 -1.6008,0.7167 -1.6008,1.6007 0,0.8841 0.7167,1.6008 1.6007,1.6008 0.8841,0 1.6008,-0.7167 1.6008,-1.6007z"/>
   <path id="_105121736" class="fil0 str0" d="M226.601 234.06c0,-0.8841 -0.7167,-1.6008 -1.6007,-1.6008 -0.884,0 -1.6007,0.7167 -1.6007,1.6007 0,0.8841 0.7167,1.6008 1.6007,1.6008 0.884,0 1.6007,-0.7167 1.6007,-1.6007z"/>
   <path id="_105121664" class="fil0 str0" d="M340.351 234.06c0,-0.8841 -0.7167,-1.6008 -1.6007,-1.6008 -0.8841,0 -1.6008,0.7167 -1.6008,1.6007 0,0.8841 0.7167,1.6008 1.6007,1.6008 0.8841,0 1.6008,-0.7167 1.6008,-1.6007z"/>
   <path id="_105121880" class="fil0 str0" d="M340.351 389.06c0,-0.8841 -0.7167,-1.6008 -1.6007,-1.6008 -0.8841,0 -1.6008,0.7167 -1.6008,1.6007 0,0.8841 0.7167,1.6008 1.6007,1.6008 0.8841,0 1.6008,-0.7167 1.6008,-1.6007z"/>
   <path id="_105122000" class="fil0 str0" d="M226.601 389.06c0,-0.8841 -0.7167,-1.6008 -1.6007,-1.6008 -0.884,0 -1.6007,0.7167 -1.6007,1.6007 0,0.8841 0.7167,1.6008 1.6007,1.6008 0.884,0 1.6007,-0.7167 1.6007,-1.6007z"/>
   <path id="_105127560" class="fil0 str0" d="M112.85 389.06c0,-0.8837 -0.7163,-1.6 -1.5999,-1.6 -0.8837,-0.0001 -1.6,0.7163 -1.6,1.5999 -0.0001,0.8837 0.7163,1.6 1.5999,1.6001 0.8837,0 1.6,-0.7164 1.6,-1.6z"/>
   <path id="_105128136" class="fil0 str0" d="M65.5 384.06l0 0m0 -145l0 0m0 145l0 -145m0 145l0 -145m0 145l0 -145m0 145l0 -145m0 145l0 -145m0 145l0 -145m0 145l0 -145m0 145l0 -145m0 145l0 -145m0 145l0 -145m0 145l0 -145m0 145l0 -145m0 145l0 -145m0 145l0 -145m0 145l0 -145m0 145l0 -145m0 145l0 -145m0 145l0 -145m0 145l0 -145m0 145l0 -145m0 145l0 -145"/>
   <path id="_105127536" class="fil0 str0" d="M65.5 239.06l0 0m319 0l0 0m-319 0l319 0m-319 0l319 0m-319 0l319 0m-319 0l319 0m-319 0l319 0m-319 0l319 0m-319 0l319 0m-319 0l319 0m-319 0l319 0m-319 0l319 0m-319 0l319 0m-319 0l319 0m-319 0l319 0m-319 0l319 0m-319 0l319 0m-319 0l319 0m-319 0l319 0m-319 0l319 0m-319 0l319 0m-319 0l319 0m-319 0l319 0"/>
   <path id="_105127464" class="fil0 str0" d="M384.5 239.06l0 0m0 145l0 0m0 -145l0 145m0 -145l0 145m0 -145l0 145m0 -145l0 145m0 -145l0 145m0 -145l0 145m0 -145l0 145m0 -145l0 145m0 -145l0 145m0 -145l0 145m0 -145l0 145m0 -145l0 145m0 -145l0 145m0 -145l0 145m0 -145l0 145m0 -145l0 145m0 -145l0 145m0 -145l0 145m0 -145l0 145m0 -145l0 145m0 -145l0 145"/>
   <path id="_105127488" class="fil0 str0" d="M384.5 384.06l0 0m-319 0l0 0m319 0l-319 0m319 0l-319 0m319 0l-319 0m319 0l-319 0m319 0l-319 0m319 0l-319 0m319 0l-319 0m319 0l-319 0m319 0l-319 0m319 0l-319 0m319 0l-319 0m319 0l-319 0m319 0l-319 0m319 0l-319 0m319 0l-319 0m319 0l-319 0m319 0l-319 0m319 0l-319 0m319 0l-319 0m319 0l-319 0m319 0l-319 0"/>
   <path id="_105127896" class="fil0 str0" d="M63.1 259.06c0,-0.8837 -0.7163,-1.6 -1.5999,-1.6 -0.8837,-0.0001 -1.6,0.7163 -1.6,1.5999 -0.0001,0.8837 0.7163,1.6 1.5999,1.6001 0.8837,0 1.6,-0.7164 1.6,-1.6z"/>
   <path id="_105127680" class="fil0 str0" d="M63.1 364.06c0,-0.8837 -0.7163,-1.6 -1.5999,-1.6 -0.8837,-0.0001 -1.6,0.7163 -1.6,1.5999 -0.0001,0.8837 0.7163,1.6 1.5999,1.6001 0.8837,0 1.6,-0.7164 1.6,-1.6z"/>
   <path id="_105127728" class="fil0 str0" d="M390.1 259.06c0,-0.8837 -0.7163,-1.6 -1.5999,-1.6 -0.8837,-0.0001 -1.6,0.7163 -1.6,1.5999 -0.0001,0.8837 0.7163,1.6 1.5999,1.6001 0.8837,0 1.6,-0.7164 1.6,-1.6z"/>
   <path id="_105127920" class="fil0 str0" d="M390.1 364.06c0,-0.8837 -0.7163,-1.6 -1.5999,-1.6 -0.8837,-0.0001 -1.6,0.7163 -1.6,1.5999 -0.0001,0.8837 0.7163,1.6 1.5999,1.6001 0.8837,0 1.6,-0.7164 1.6,-1.6z"/>
   <path id="_105128040" class="fil0 str0" d="M63.6001 85.9401c0,-0.8837 -0.7164,-1.6 -1.6,-1.6 -0.8837,-0.0001 -1.6,0.7163 -1.6,1.5999 -0.0001,0.8837 0.7163,1.6 1.5999,1.6001 0.8837,0 1.6,-0.7164 1.6,-1.6z"/>
   <path id="_105127944" class="fil0 str0" d="M390.101 85.9401c0,-0.8841 -0.7167,-1.6008 -1.6007,-1.6008 -0.8841,0 -1.6008,0.7167 -1.6008,1.6007 0,0.8841 0.7167,1.6008 1.6007,1.6008 0.8841,0 1.6008,-0.7167 1.6008,-1.6007z"/>
   <path id="_105128664" class="fil0 str0" d="M390.101 190.94c0,-0.8841 -0.7167,-1.6008 -1.6007,-1.6008 -0.8841,0 -1.6008,0.7167 -1.6008,1.6007 0,0.8841 0.7167,1.6008 1.6007,1.6008 0.8841,0 1.6008,-0.7167 1.6008,-1.6007z"/>
   <path id="_105128280" class="fil0 str0" d="M63.1001 190.94c0,-0.8837 -0.7164,-1.6 -1.6,-1.6 -0.8837,-0.0001 -1.6,0.7163 -1.6,1.5999 -0.0001,0.8837 0.7163,1.6 1.5999,1.6001 0.8837,0 1.6,-0.7164 1.6,-1.6z"/>
   <path id="_105128232" class="fil0 str0" d="M74.91 242.89l0 0m74 0l0 0m-74 0l74 0m-74 0l74 0m-74 0l74 0m-74 0l74 0m-74 0l74 0m-74 0l74 0m-74 0l74 0m-74 0l74 0m-74 0l74 0m-74 0l74 0m-74 0l74 0m-74 0l74 0m-74 0l74 0m-74 0l74 0m-74 0l74 0m-74 0l74 0m-74 0l74 0m-74 0l74 0m-74 0l74 0m-74 0l74 0m-74 0l74 0"/>
   <path id="_105128544" class="fil0 str0" d="M149.6 383l0 0m-74 0l0 0m74 0l-74 0m74 0l-74 0m74 0l-74 0m74 0l-74 0m74 0l-74 0m74 0l-74 0m74 0l-74 0m74 0l-74 0m74 0l-74 0m74 0l-74 0m74 0l-74 0m74 0l-74 0m74 0l-74 0m74 0l-74 0m74 0l-74 0m74 0l-74 0m74 0l-74 0m74 0l-74 0m74 0l-74 0m74 0l-74 0m74 0l-74 0"/>
   <path id="_105128208" class="fil0 str0" d="M74.91 242.89c-1.5912,0 -3.1174,0.6321 -4.2426,1.7573 -1.1252,1.1252 -1.7574,2.6514 -1.7574,4.2427"/>
   <path id="_105128496" class="fil0 str0" d="M69.6 377c0,1.5912 0.6322,3.1174 1.7574,4.2426 1.1252,1.1252 2.6514,1.7574 4.2426,1.7574"/>
   <path id="_105128640" class="fil0 str0" d="M124.261 247.89c0,-0.8841 -0.7167,-1.6008 -1.6007,-1.6008 -0.8841,0 -1.6008,0.7167 -1.6008,1.6007 0,0.8841 0.7167,1.6008 1.6007,1.6008 0.8841,0 1.6008,-0.7167 1.6008,-1.6007z"/>
   <path id="_105128736" class="fil0 str0" d="M124.95 378c0,-0.8837 -0.7163,-1.6 -1.5999,-1.6 -0.8837,-0.0001 -1.6,0.7163 -1.6,1.5999 -0.0001,0.8837 0.7163,1.6 1.5999,1.6001 0.8837,0 1.6,-0.7164 1.6,-1.6z"/>
   <path id="_105128808" class="fil0 str0" d="M76.91 252.89l0 0m72 0l0 0m-72 0l72 0m-72 0l72 0m-72 0l72 0m-72 0l72 0m-72 0l72 0m-72 0l72 0m-72 0l72 0m-72 0l72 0m-72 0l72 0m-72 0l72 0m-72 0l72 0m-72 0l72 0m-72 0l72 0m-72 0l72 0m-72 0l72 0m-72 0l72 0m-72 0l72 0m-72 0l72 0m-72 0l72 0m-72 0l72 0m-72 0l72 0"/>
   <path id="_105128424" class="fil0 str0" d="M149.6 373l0 0m-72.0001 0l0 0m72.0001 0l-72.0001 0m72.0001 0l-72.0001 0m72.0001 0l-72.0001 0m72.0001 0l-72.0001 0m72.0001 0l-72.0001 0m72.0001 0l-72.0001 0m72.0001 0l-72.0001 0m72.0001 0l-72.0001 0m72.0001 0l-72.0001 0m72.0001 0l-72.0001 0m72.0001 0l-72.0001 0m72.0001 0l-72.0001 0m72.0001 0l-72.0001 0m72.0001 0l-72.0001 0m72.0001 0l-72.0001 0m72.0001 0l-72.0001 0m72.0001 0l-72.0001 0m72.0001 0l-72.0001 0m72.0001 0l-72.0001 0m72.0001 0l-72.0001 0m72.0001 0l-72.0001 0"/>
   <path id="_105129216" class="fil0 str0" d="M74.51 272.89c0,-0.8837 -0.7163,-1.6 -1.5999,-1.6 -0.8837,-0.0001 -1.6,0.7163 -1.6,1.5999 -0.0001,0.8837 0.7163,1.6 1.5999,1.6001 0.8837,0 1.6,-0.7164 1.6,-1.6z"/>
   <path id="_105129264" class="fil0 str0" d="M75.2 353c0,-0.8837 -0.7163,-1.6 -1.5999,-1.6 -0.8837,-0.0001 -1.6,0.7163 -1.6,1.5999 -0.0001,0.8837 0.7163,1.6 1.5999,1.6001 0.8837,0 1.6,-0.7164 1.6,-1.6z"/>
   <path id="_105129240" class="fil0 str0" d="M68.91 292.89l0 0m8 0l0 0m-8 0l8 0m-8 0l8 0m-8 0l8 0m-8 0l8 0m-8 0l8 0m-8 0l8 0m-8 0l8 0m-8 0l8 0m-8 0l8 0m-8 0l8 0m-8 0l8 0m-8 0l8 0m-8 0l8 0m-8 0l8 0m-8 0l8 0m-8 0l8 0m-8 0l8 0m-8 0l8 0m-8 0l8 0m-8 0l8 0m-8 0l8 0"/>
   <path id="_105129000" class="fil0 str0" d="M148.91 252.89l0 0m0 -10l0 0m0 10l0 -10m0 10l0 -10m0 10l0 -10m0 10l0 -10m0 10l0 -10m0 10l0 -10m0 10l0 -10m0 10l0 -10m0 10l0 -10m0 10l0 -10m0 10l0 -10m0 10l0 -10m0 10l0 -10m0 10l0 -10m0 10l0 -10m0 10l0 -10m0 10l0 -10m0 10l0 -10m0 10l0 -10m0 10l0 -10m0 10l0 -10"/>
   <path id="_105129288" class="fil0 str0" d="M69.6 333l0 0m8 0l0 0m-8 0l8 0m-8 0l8 0m-8 0l8 0m-8 0l8 0m-8 0l8 0m-8 0l8 0m-8 0l8 0m-8 0l8 0m-8 0l8 0m-8 0l8 0m-8 0l8 0m-8 0l8 0m-8 0l8 0m-8 0l8 0m-8 0l8 0m-8 0l8 0m-8 0l8 0m-8 0l8 0m-8 0l8 0m-8 0l8 0m-8 0l8 0"/>
   <path id="_105129024" class="fil0 str0" d="M149.6 373l0 0m0 10l0 0m0 -10l0 10m0 -10l0 10m0 -10l0 10m0 -10l0 10m0 -10l0 10m0 -10l0 10m0 -10l0 10m0 -10l0 10m0 -10l0 10m0 -10l0 10m0 -10l0 10m0 -10l0 10m0 -10l0 10m0 -10l0 10m0 -10l0 10m0 -10l0 10m0 -10l0 10m0 -10l0 10m0 -10l0 10m0 -10l0 10m0 -10l0 10"/>
   <path id="_105121832" class="fil0 str0" d="M77.6 373l0 0m0 -40l0 0m0 40l0 -40m0 40l0 -40m0 40l0 -40m0 40l0 -40m0 40l0 -40m0 40l0 -40m0 40l0 -40m0 40l0 -40m0 40l0 -40m0 40l0 -40m0 40l0 -40m0 40l0 -40m0 40l0 -40m0 40l0 -40m0 40l0 -40m0 40l0 -40m0 40l0 -40m0 40l0 -40m0 40l0 -40m0 40l0 -40m0 40l0 -40"/>
   <path id="_105313224" class="fil0 str0" d="M76.91 292.89l0 0m0 -40.0001l0 0m0 40.0001l0 -40.0001m0 40.0001l0 -40.0001m0 40.0001l0 -40.0001m0 40.0001l0 -40.0001m0 40.0001l0 -40.0001m0 40.0001l0 -40.0001m0 40.0001l0 -40.0001m0 40.0001l0 -40.0001m0 40.0001l0 -40.0001m0 40.0001l0 -40.0001m0 40.0001l0 -40.0001m0 40.0001l0 -40.0001m0 40.0001l0 -40.0001m0 40.0001l0 -40.0001m0 40.0001l0 -40.0001m0 40.0001l0 -40.0001m0 40.0001l0 -40.0001m0 40.0001l0 -40.0001m0 40.0001l0 -40.0001m0 40.0001l0 -40.0001m0 40.0001l0 -40.0001"/>
   <path id="_105313584" class="fil0 str0" d="M69.6 377l0 0m0 -44l0 0m0 44l0 -44m0 44l0 -44m0 44l0 -44m0 44l0 -44m0 44l0 -44m0 44l0 -44m0 44l0 -44m0 44l0 -44m0 44l0 -44m0 44l0 -44m0 44l0 -44m0 44l0 -44m0 44l0 -44m0 44l0 -44m0 44l0 -44m0 44l0 -44m0 44l0 -44m0 44l0 -44m0 44l0 -44m0 44l0 -44m0 44l0 -44"/>
   <path id="_105313008" class="fil0 str0" d="M68.91 292.89l0 0m0 -44l0 0m0 44l0 -44m0 44l0 -44m0 44l0 -44m0 44l0 -44m0 44l0 -44m0 44l0 -44m0 44l0 -44m0 44l0 -44m0 44l0 -44m0 44l0 -44m0 44l0 -44m0 44l0 -44m0 44l0 -44m0 44l0 -44m0 44l0 -44m0 44l0 -44m0 44l0 -44m0 44l0 -44m0 44l0 -44m0 44l0 -44m0 44l0 -44"/>
   <path id="_105313392" class="fil0 str0" d="M376.36 383.19l0 0m-74 0l0 0m74 0l-74 0m74 0l-74 0m74 0l-74 0m74 0l-74 0m74 0l-74 0m74 0l-74 0m74 0l-74 0m74 0l-74 0m74 0l-74 0m74 0l-74 0m74 0l-74 0m74 0l-74 0m74 0l-74 0m74 0l-74 0m74 0l-74 0m74 0l-74 0m74 0l-74 0m74 0l-74 0m74 0l-74 0m74 0l-74 0m74 0l-74 0"/>
   <path id="_105313272" class="fil0 str0" d="M300.53 242.89l0 0m74 0l0 0m-74 0l74 0m-74 0l74 0m-74 0l74 0m-74 0l74 0m-74 0l74 0m-74 0l74 0m-74 0l74 0m-74 0l74 0m-74 0l74 0m-74 0l74 0m-74 0l74 0m-74 0l74 0m-74 0l74 0m-74 0l74 0m-74 0l74 0m-74 0l74 0m-74 0l74 0m-74 0l74 0m-74 0l74 0m-74 0l74 0m-74 0l74 0"/>
   <path id="_105313488" class="fil0 str0" d="M376.36 383.19c3.3137,0 6,-2.6863 6,-6"/>
   <path id="_105313128" class="fil0 str0" d="M380.53 248.89c0,-1.5913 -0.6321,-3.1175 -1.7573,-4.2427 -1.1252,-1.1252 -2.6514,-1.7573 -4.2427,-1.7573"/>
   <path id="_105313152" class="fil0 str0" d="M330.211 378.19c0,-0.8841 -0.7167,-1.6008 -1.6007,-1.6008 -0.8841,0 -1.6008,0.7167 -1.6008,1.6007 0,0.8841 0.7167,1.6008 1.6007,1.6008 0.8841,0 1.6008,-0.7167 1.6008,-1.6007z"/>
   <path id="_105313032" class="fil0 str0" d="M328.38 247.89c0,-0.8837 -0.7163,-1.6 -1.5999,-1.6 -0.8837,-0.0001 -1.6,0.7163 -1.6,1.5999 -0.0001,0.8837 0.7163,1.6 1.5999,1.6001 0.8837,0 1.6,-0.7164 1.6,-1.6z"/>
   <path id="_105313176" class="fil0 str0" d="M374.36 373.19l0 0m-72 0l0 0m72 0l-72 0m72 0l-72 0m72 0l-72 0m72 0l-72 0m72 0l-72 0m72 0l-72 0m72 0l-72 0m72 0l-72 0m72 0l-72 0m72 0l-72 0m72 0l-72 0m72 0l-72 0m72 0l-72 0m72 0l-72 0m72 0l-72 0m72 0l-72 0m72 0l-72 0m72 0l-72 0m72 0l-72 0m72 0l-72 0m72 0l-72 0"/>
   <path id="_105314184" class="fil0 str0" d="M300.53 252.89l0 0m72 0l0 0m-72 0l72 0m-72 0l72 0m-72 0l72 0m-72 0l72 0m-72 0l72 0m-72 0l72 0m-72 0l72 0m-72 0l72 0m-72 0l72 0m-72 0l72 0m-72 0l72 0m-72 0l72 0m-72 0l72 0m-72 0l72 0m-72 0l72 0m-72 0l72 0m-72 0l72 0m-72 0l72 0m-72 0l72 0m-72 0l72 0m-72 0l72 0"/>
   <path id="_105313920" class="fil0 str0" d="M379.96 353.19c0,-0.8837 -0.7163,-1.6 -1.5999,-1.6 -0.8837,-0.0001 -1.6,0.7163 -1.6,1.5999 -0.0001,0.8837 0.7163,1.6 1.5999,1.6001 0.8837,0 1.6,-0.7164 1.6,-1.6z"/>
   <path id="_105313872" class="fil0 str0" d="M378.13 272.89c0,-0.8837 -0.7163,-1.6 -1.5999,-1.6 -0.8837,-0.0001 -1.6,0.7163 -1.6,1.5999 -0.0001,0.8837 0.7163,1.6 1.5999,1.6001 0.8837,0 1.6,-0.7164 1.6,-1.6z"/>
   <path id="_105314328" class="fil0 str0" d="M382.36 333.19l0 0m-8 0l0 0m8 0l-8 0m8 0l-8 0m8 0l-8 0m8 0l-8 0m8 0l-8 0m8 0l-8 0m8 0l-8 0m8 0l-8 0m8 0l-8 0m8 0l-8 0m8 0l-8 0m8 0l-8 0m8 0l-8 0m8 0l-8 0m8 0l-8 0m8 0l-8 0m8 0l-8 0m8 0l-8 0m8 0l-8 0m8 0l-8 0m8 0l-8 0"/>
   <path id="_105313800" class="fil0 str0" d="M302.36 373.19l0 0m0 10l0 0m0 -10l0 10m0 -10l0 10m0 -10l0 10m0 -10l0 10m0 -10l0 10m0 -10l0 10m0 -10l0 10m0 -10l0 10m0 -10l0 10m0 -10l0 10m0 -10l0 10m0 -10l0 10m0 -10l0 10m0 -10l0 10m0 -10l0 10m0 -10l0 10m0 -10l0 10m0 -10l0 10m0 -10l0 10m0 -10l0 10m0 -10l0 10"/>
   <path id="_105314064" class="fil0 str0" d="M380.53 292.89l0 0m-8 0l0 0m8 0l-8 0m8 0l-8 0m8 0l-8 0m8 0l-8 0m8 0l-8 0m8 0l-8 0m8 0l-8 0m8 0l-8 0m8 0l-8 0m8 0l-8 0m8 0l-8 0m8 0l-8 0m8 0l-8 0m8 0l-8 0m8 0l-8 0m8 0l-8 0m8 0l-8 0m8 0l-8 0m8 0l-8 0m8 0l-8 0m8 0l-8 0"/>
   <path id="_105313848" class="fil0 str0" d="M300.53 252.89l0 0m0 -10l0 0m0 10l0 -10m0 10l0 -10m0 10l0 -10m0 10l0 -10m0 10l0 -10m0 10l0 -10m0 10l0 -10m0 10l0 -10m0 10l0 -10m0 10l0 -10m0 10l0 -10m0 10l0 -10m0 10l0 -10m0 10l0 -10m0 10l0 -10m0 10l0 -10m0 10l0 -10m0 10l0 -10m0 10l0 -10m0 10l0 -10m0 10l0 -10"/>
   <path id="_105313968" class="fil0 str0" d="M372.53 252.89l0 0m0 40l0 0m0 -40l0 40m0 -40l0 40m0 -40l0 40m0 -40l0 40m0 -40l0 40m0 -40l0 40m0 -40l0 40m0 -40l0 40m0 -40l0 40m0 -40l0 40m0 -40l0 40m0 -40l0 40m0 -40l0 40m0 -40l0 40m0 -40l0 40m0 -40l0 40m0 -40l0 40m0 -40l0 40m0 -40l0 40m0 -40l0 40m0 -40l0 40"/>
   <path id="_105313704" class="fil0 str0" d="M374.36 333.19l0 0m0 40l0 0m0 -40l0 40m0 -40l0 40m0 -40l0 40m0 -40l0 40m0 -40l0 40m0 -40l0 40m0 -40l0 40m0 -40l0 40m0 -40l0 40m0 -40l0 40m0 -40l0 40m0 -40l0 40m0 -40l0 40m0 -40l0 40m0 -40l0 40m0 -40l0 40m0 -40l0 40m0 -40l0 40m0 -40l0 40m0 -40l0 40m0 -40l0 40"/>
   <path id="_105313992" class="fil0 str0" d="M380.53 248.89l0 0m0 44l0 0m0 -44l0 44m0 -44l0 44m0 -44l0 44m0 -44l0 44m0 -44l0 44m0 -44l0 44m0 -44l0 44m0 -44l0 44m0 -44l0 44m0 -44l0 44m0 -44l0 44m0 -44l0 44m0 -44l0 44m0 -44l0 44m0 -44l0 44m0 -44l0 44m0 -44l0 44m0 -44l0 44m0 -44l0 44m0 -44l0 44m0 -44l0 44"/>
   <path id="_105314424" class="fil0 str0" d="M382.36 333.19l0 0m0 44l0 0m0 -44l0 44m0 -44l0 44m0 -44l0 44m0 -44l0 44m0 -44l0 44m0 -44l0 44m0 -44l0 44m0 -44l0 44m0 -44l0 44m0 -44l0 44m0 -44l0 44m0 -44l0 44m0 -44l0 44m0 -44l0 44m0 -44l0 44m0 -44l0 44m0 -44l0 44m0 -44l0 44m0 -44l0 44m0 -44l0 44m0 -44l0 44"/>
   <path id="_105314808" class="fil0 str0" d="M220.001 255.53l0 0m-103.752 0l0 0m103.752 0l-103.752 0m103.752 0l-103.752 0m103.752 0l-103.752 0m103.752 0l-103.752 0m103.752 0l-103.752 0m103.752 0l-103.752 0m103.752 0l-103.752 0m103.752 0l-103.752 0m103.752 0l-103.752 0m103.752 0l-103.752 0m103.752 0l-103.752 0m103.752 0l-103.752 0m103.752 0l-103.752 0m103.752 0l-103.752 0m103.752 0l-103.752 0m103.752 0l-103.752 0m103.752 0l-103.752 0m103.752 0l-103.752 0m103.752 0l-103.752 0m103.752 0l-103.752 0m103.752 0l-103.752 0"/>
   <path id="_105314568" class="fil0 str0" d="M106.251 255.53l0 0m-26.2511 0l0 0m26.2511 0l-26.2511 0m26.2511 0l-26.2511 0m26.2511 0l-26.2511 0m26.2511 0l-26.2511 0m26.2511 0l-26.2511 0m26.2511 0l-26.2511 0m26.2511 0l-26.2511 0m26.2511 0l-26.2511 0m26.2511 0l-26.2511 0m26.2511 0l-26.2511 0m26.2511 0l-26.2511 0m26.2511 0l-26.2511 0m26.2511 0l-26.2511 0m26.2511 0l-26.2511 0m26.2511 0l-26.2511 0m26.2511 0l-26.2511 0m26.2511 0l-26.2511 0m26.2511 0l-26.2511 0m26.2511 0l-26.2511 0m26.2511 0l-26.2511 0m26.2511 0l-26.2511 0"/>
   <path id="_105314496" class="fil0 str0" d="M229.999 255.53l0 0m103.752 0l0 0m-103.752 0l103.752 0m-103.752 0l103.752 0m-103.752 0l103.752 0m-103.752 0l103.752 0m-103.752 0l103.752 0m-103.752 0l103.752 0m-103.752 0l103.752 0m-103.752 0l103.752 0m-103.752 0l103.752 0m-103.752 0l103.752 0m-103.752 0l103.752 0m-103.752 0l103.752 0m-103.752 0l103.752 0m-103.752 0l103.752 0m-103.752 0l103.752 0m-103.752 0l103.752 0m-103.752 0l103.752 0m-103.752 0l103.752 0m-103.752 0l103.752 0m-103.752 0l103.752 0m-103.752 0l103.752 0"/>
   <path id="_105314856" class="fil0 str0" d="M343.749 255.53l0 0m26.2511 0l0 0m-26.2511 0l26.2511 0m-26.2511 0l26.2511 0m-26.2511 0l26.2511 0m-26.2511 0l26.2511 0m-26.2511 0l26.2511 0m-26.2511 0l26.2511 0m-26.2511 0l26.2511 0m-26.2511 0l26.2511 0m-26.2511 0l26.2511 0m-26.2511 0l26.2511 0m-26.2511 0l26.2511 0m-26.2511 0l26.2511 0m-26.2511 0l26.2511 0m-26.2511 0l26.2511 0m-26.2511 0l26.2511 0m-26.2511 0l26.2511 0m-26.2511 0l26.2511 0m-26.2511 0l26.2511 0m-26.2511 0l26.2511 0m-26.2511 0l26.2511 0m-26.2511 0l26.2511 0"/>
  </g>
 </g>
</svg>
