  0
SECTION
  2
HEADER
  9
$ACADVER
  1
AC1009
  9
$DWGCODEPAGE
  3
ansi_1252
  9
$INSBASE
 10
0.0
 20
0.0
 30
0.0
  9
$EXTMIN
 10
-0.0000000000000546
 20
26.87999999999999
 30
-0.0000000000000223
  9
$EXTMAX
 10
335.0
 20
365.0
 30
-0.0000000000000016
  9
$LIMMIN
 10
0.0
 20
0.0
  9
$LIMMAX
 10
420.0
 20
297.0
  9
$ORTHOMODE
 70
     0
  9
$REGENMODE
 70
     1
  9
$FILLMODE
 70
     1
  9
$QTEXTMODE
 70
     0
  9
$MIRRTEXT
 70
     1
  9
$DRAGMODE
 70
     2
  9
$LTSCALE
 40
1.0
  9
$OSMODE
 70
    37
  9
$ATTMODE
 70
     1
  9
$TEXTSIZE
 40
2.5
  9
$TRACEWID
 40
1.0
  9
$TEXTSTYLE
  7
STANDARD
  9
$CLAYER
  8
0
  9
$CELTYPE
  6
BYLAYER
  9
$CECOLOR
 62
   256
  9
$DIMSCALE
 40
1.0
  9
$DIMASZ
 40
2.5
  9
$DIMEXO
 40
0.625
  9
$DIMDLI
 40
3.75
  9
$DIMRND
 40
0.0
  9
$DIMDLE
 40
0.0
  9
$DIMEXE
 40
1.25
  9
$DIMTP
 40
0.0
  9
$DIMTM
 40
0.0
  9
$DIMTXT
 40
2.5
  9
$DIMCEN
 40
2.5
  9
$DIMTSZ
 40
0.0
  9
$DIMTOL
 70
     0
  9
$DIMLIM
 70
     0
  9
$DIMTIH
 70
     1
  9
$DIMTOH
 70
     0
  9
$DIMSE1
 70
     0
  9
$DIMSE2
 70
     0
  9
$DIMTAD
 70
     1
  9
$DIMZIN
 70
     8
  9
$DIMBLK
  1

  9
$DIMASO
 70
     1
  9
$DIMSHO
 70
     1
  9
$DIMPOST
  1
mm
  9
$DIMAPOST
  1

  9
$DIMALT
 70
     0
  9
$DIMALTD
 70
     3
  9
$DIMALTF
 40
0.0393700787401575
  9
$DIMLFAC
 40
1.0
  9
$DIMTOFL
 70
     1
  9
$DIMTVP
 40
0.0
  9
$DIMTIX
 70
     0
  9
$DIMSOXD
 70
     0
  9
$DIMSAH
 70
     0
  9
$DIMBLK1
  1

  9
$DIMBLK2
  1

  9
$DIMSTYLE
  2
ISO-25
  9
$DIMCLRD
 70
     0
  9
$DIMCLRE
 70
     0
  9
$DIMCLRT
 70
     0
  9
$DIMTFAC
 40
1.0
  9
$DIMGAP
 40
0.625
  9
$LUNITS
 70
     2
  9
$LUPREC
 70
     4
  9
$SKETCHINC
 40
1.0
  9
$FILLETRAD
 40
10.0
  9
$AUNITS
 70
     0
  9
$AUPREC
 70
     0
  9
$MENU
  1
.
  9
$ELEVATION
 40
0.0
  9
$PELEVATION
 40
0.0
  9
$THICKNESS
 40
0.0
  9
$LIMCHECK
 70
     0
  9
$CHAMFERA
 40
0.0
  9
$CHAMFERB
 40
0.0
  9
$SKPOLY
 70
     0
  9
$TDCREATE
 40
2458904.602597558
  9
$TDUPDATE
 40
2458904.602598357
  9
$TDINDWG
 40
0.0000000116
  9
$TDUSRTIMER
 40
0.0000000116
  9
$USRTIMER
 70
     1
  9
$ANGBASE
 50
0.0
  9
$ANGDIR
 70
     0
  9
$PDMODE
 70
     0
  9
$PDSIZE
 40
0.0
  9
$PLINEWID
 40
0.0
  9
$COORDS
 70
     1
  9
$SPLFRAME
 70
     0
  9
$SPLINETYPE
 70
     6
  9
$SPLINESEGS
 70
     8
  9
$ATTDIA
 70
     0
  9
$ATTREQ
 70
     1
  9
$HANDLING
 70
     1
  9
$HANDSEED
  5
E3
  9
$SURFTAB1
 70
     6
  9
$SURFTAB2
 70
     6
  9
$SURFTYPE
 70
     6
  9
$SURFU
 70
     6
  9
$SURFV
 70
     6
  9
$UCSNAME
  2

  9
$UCSORG
 10
0.0
 20
0.0
 30
0.0
  9
$UCSXDIR
 10
1.0
 20
0.0
 30
0.0
  9
$UCSYDIR
 10
0.0
 20
1.0
 30
0.0
  9
$PUCSNAME
  2

  9
$PUCSORG
 10
0.0
 20
0.0
 30
0.0
  9
$PUCSXDIR
 10
1.0
 20
0.0
 30
0.0
  9
$PUCSYDIR
 10
0.0
 20
1.0
 30
0.0
  9
$USERI1
 70
     0
  9
$USERI2
 70
     0
  9
$USERI3
 70
     0
  9
$USERI4
 70
     0
  9
$USERI5
 70
     0
  9
$USERR1
 40
0.0
  9
$USERR2
 40
0.0
  9
$USERR3
 40
0.0
  9
$USERR4
 40
0.0
  9
$USERR5
 40
0.0
  9
$WORLDVIEW
 70
     1
  9
$SHADEDGE
 70
     3
  9
$SHADEDIF
 70
    70
  9
$TILEMODE
 70
     1
  9
$MAXACTVP
 70
    64
  9
$PLIMCHECK
 70
     0
  9
$PEXTMIN
 10
1.000000000000000E+20
 20
1.000000000000000E+20
 30
1.000000000000000E+20
  9
$PEXTMAX
 10
-1.000000000000000E+20
 20
-1.000000000000000E+20
 30
-1.000000000000000E+20
  9
$PLIMMIN
 10
0.0
 20
0.0
  9
$PLIMMAX
 10
420.0
 20
297.0
  9
$UNITMODE
 70
     0
  9
$VISRETAIN
 70
     1
  9
$PLINEGEN
 70
     0
  9
$PSLTSCALE
 70
     1
  0
ENDSEC
  0
SECTION
  2
TABLES
  0
TABLE
  2
VPORT
 70
     1
  0
VPORT
  2
*ACTIVE
 70
     0
 10
0.0
 20
0.0
 11
1.0
 21
1.0
 12
167.5
 22
195.94
 13
0.0
 23
0.0
 14
10.0
 24
10.0
 15
10.0
 25
10.0
 16
0.0
 26
0.0
 36
1.0
 17
0.0
 27
0.0
 37
0.0
 40
338.12
 41
0.9907725068023189
 42
50.0
 43
0.0
 44
0.0
 50
0.0
 51
0.0
 71
     0
 72
   100
 73
     1
 74
     3
 75
     0
 76
     0
 77
     0
 78
     0
  0
ENDTAB
  0
TABLE
  2
LTYPE
 70
     1
  0
LTYPE
  2
CONTINUOUS
 70
     0
  3
Solid line
 72
    65
 73
     0
 40
0.0
  0
ENDTAB
  0
TABLE
  2
LAYER
 70
     1
  0
LAYER
  2
0
 70
     0
 62
   253
  6
CONTINUOUS
  0
ENDTAB
  0
TABLE
  2
STYLE
 70
     1
  0
STYLE
  2
STANDARD
 70
     0
 40
0.0
 41
1.0
 50
0.0
 71
     0
 42
2.5
  3
txt
  4

  0
ENDTAB
  0
TABLE
  2
VIEW
 70
     0
  0
ENDTAB
  0
TABLE
  2
UCS
 70
     0
  0
ENDTAB
  0
TABLE
  2
APPID
 70
     1
  0
APPID
  2
ACAD
 70
     0
  0
ENDTAB
  0
TABLE
  2
DIMSTYLE
 70
     1
  0
DIMSTYLE
  2
ISO-25
 70
     0
  3

  4

  5

  6

  7

 40
1.0
 41
2.5
 42
0.625
 43
3.75
 44
1.25
 45
0.0
 46
0.0
 47
0.0
 48
0.0
140
2.5
141
2.5
142
0.0
143
0.03937007874016
144
1.0
145
0.0
146
1.0
147
0.625
 71
     0
 72
     0
 73
     0
 74
     0
 75
     0
 76
     0
 77
     1
 78
     8
170
     0
171
     3
172
     1
173
     0
174
     0
175
     0
176
     0
177
     0
178
     0
  0
ENDTAB
  0
ENDSEC
  0
SECTION
  2
BLOCKS
  0
BLOCK
  8
0
  2
$MODEL_SPACE
 70
     0
 10
0.0
 20
0.0
 30
0.0
  3
$MODEL_SPACE
  1

  0
ENDBLK
  5
21
  8
0
  0
BLOCK
 67
     1
  8
0
  2
$PAPER_SPACE
 70
     0
 10
0.0
 20
0.0
 30
0.0
  3
$PAPER_SPACE
  1

  0
ENDBLK
  5
1D
 67
     1
  8
0
  0
ENDSEC
  0
SECTION
  2
ENTITIES
  0
LINE
  5
6E
  8
0
 10
0.0000000000000057
 20
206.0
 30
0.0
 11
0.00000000000001
 21
359.0
 31
0.0
  0
LINE
  5
6F
  8
0
 10
6.000000000000016
 20
365.0
 30
0.0
 11
329.0000000001
 21
365.0
 31
0.0
  0
LINE
  5
70
  8
0
 10
335.0
 20
359.0
 30
0.0
 11
335.0
 21
206.0
 31
0.0
  0
LINE
  5
71
  8
0
 10
329.0
 20
200.0
 30
0.0
 11
6.000000000000005
 21
200.0
 31
0.0
  0
CIRCLE
  5
72
  8
0
 10
167.5
 20
282.5000000000001
 30
0.0
 40
43.5
  0
CIRCLE
  5
73
  8
0
 10
53.75
 20
282.5000000000001
 30
0.0
 40
36.0
  0
CIRCLE
  5
74
  8
0
 10
281.25
 20
282.5000000000001
 30
0.0
 40
36.0
  0
ARC
  5
75
  8
0
 10
6.000000000000015
 20
359.0
 30
0.0
 40
6.000000000000005
 50
90.0
 51
180.0
  0
ARC
  5
76
  8
0
 10
6.000000000000012
 20
206.0
 30
0.0
 40
6.000000000000005
 50
180.0
 51
270.0
  0
ARC
  5
77
  8
0
 10
329.0
 20
206.0
 30
0.0
 40
5.999999999999995
 50
270.0
 51
0.0
  0
ARC
  5
78
  8
0
 10
329.0
 20
359.0
 30
0.0
 40
6.000000000000005
 50
360.0
 51
90.0
  0
CIRCLE
  5
79
  8
0
 10
54.00000000000001
 20
340.0
 30
0.0
 40
4.75
  0
CIRCLE
  5
7A
  8
0
 10
167.5
 20
340.0
 30
0.0
 40
4.75
  0
CIRCLE
  5
7B
  8
0
 10
281.2500000000001
 20
340.0
 30
0.0
 40
4.75
  0
CIRCLE
  5
7C
  8
0
 10
306.0
 20
227.0
 30
0.0
 40
12.5
  0
CIRCLE
  5
7D
  8
0
 10
313.0
 20
345.0
 30
0.0
 40
3.5
  0
LINE
  5
7E
  8
0
 10
312.5
 20
165.4100000000001
 30
0.0
 11
312.5
 21
50.4100000000001
 31
0.0
  0
LINE
  5
7F
  8
0
 10
312.5
 20
50.40999999999998
 30
0.0
 11
167.5
 21
50.40999999999999
 31
0.0
  0
LINE
  5
80
  8
0
 10
22.50000000000008
 20
165.4100000000001
 30
0.0
 11
22.50000000000006
 21
50.41000000000004
 31
0.0
  0
LINE
  5
81
  8
0
 10
22.50000000000013
 20
50.40999999999999
 30
0.0
 11
167.5
 21
50.40999999999998
 31
0.0
  0
CIRCLE
  5
82
  8
0
 10
53.75000000000003
 20
144.3100000000001
 30
0.0
 40
12.0
  0
CIRCLE
  5
83
  8
0
 10
167.5000000000001
 20
144.3100000000001
 30
0.0
 40
12.0
  0
CIRCLE
  5
84
  8
0
 10
281.25
 20
144.3100000000001
 30
0.0
 40
12.00000000000001
  0
ARC
  5
85
  8
0
 10
53.75000000000003
 20
165.31
 30
0.0
 40
5.0
 50
178.8540080016115
 51
1.14599199838846
  0
ARC
  5
86
  8
0
 10
167.5000000000001
 20
165.31
 30
0.0
 40
5.0
 50
178.8540080016115
 51
1.14599199838846
  0
ARC
  5
87
  8
0
 10
281.25
 20
165.31
 30
0.0
 40
5.0
 50
178.8540080016115
 51
1.14599199838846
  0
CIRCLE
  5
88
  8
0
 10
53.75
 20
360.0000000000001
 30
0.0
 40
1.600781059358236
  0
CIRCLE
  5
89
  8
0
 10
167.5
 20
360.0000000000001
 30
0.0
 40
1.600781059358231
  0
CIRCLE
  5
8A
  8
0
 10
281.25
 20
360.0000000000001
 30
0.0
 40
1.600781059358236
  0
CIRCLE
  5
8B
  8
0
 10
281.25
 20
205.0
 30
0.0
 40
1.600781059358236
  0
CIRCLE
  5
8C
  8
0
 10
167.5
 20
205.0
 30
0.0
 40
1.600781059358236
  0
CIRCLE
  5
8D
  8
0
 10
53.75
 20
205.0
 30
0.0
 40
1.6
  0
LINE
  5
8E
  8
0
 10
110.6250000000001
 20
107.9100000000001
 30
0.0
 11
110.6250000000001
 21
137.9100000000001
 31
0.0
  0
LINE
  5
8F
  8
0
 10
110.6250000000001
 20
137.9100000000001
 30
0.0
 11
120.6250000000001
 21
137.9100000000001
 31
0.0
  0
LINE
  5
90
  8
0
 10
120.625
 20
137.91
 30
0.0
 11
120.625
 21
107.91
 31
0.0
  0
LINE
  5
91
  8
0
 10
120.625
 20
107.9100000000001
 30
0.0
 11
110.625
 21
107.9100000000001
 31
0.0
  0
LINE
  5
92
  8
0
 10
224.375
 20
107.9100000000001
 30
0.0
 11
224.375
 21
77.91000000000005
 31
0.0
  0
LINE
  5
93
  8
0
 10
224.375
 20
77.91000000000008
 30
0.0
 11
214.375
 21
77.91000000000008
 31
0.0
  0
LINE
  5
94
  8
0
 10
214.375
 20
77.91000000000005
 30
0.0
 11
214.375
 21
107.9100000000001
 31
0.0
  0
LINE
  5
95
  8
0
 10
214.3750000000001
 20
107.9100000000001
 30
0.0
 11
224.3750000000001
 21
107.9100000000001
 31
0.0
  0
LINE
  5
96
  8
0
 10
-0.0000000000000546
 20
32.88000000000001
 30
0.0
 11
-0.0000000000000504
 21
185.88
 31
0.0
  0
LINE
  5
97
  8
0
 10
5.999999999999955
 20
191.88
 30
0.0
 11
328.9999999999999
 21
191.88
 31
0.0
  0
LINE
  5
98
  8
0
 10
334.9999999999999
 20
185.88
 30
0.0
 11
334.9999999999999
 21
32.88
 31
0.0
  0
LINE
  5
99
  8
0
 10
328.9999999999999
 20
26.87999999999999
 30
0.0
 11
5.99999999999995
 21
26.88
 31
0.0
  0
ARC
  5
9A
  8
0
 10
5.999999999999955
 20
185.88
 30
0.0
 40
6.000000000000005
 50
90.0
 51
180.0
  0
ARC
  5
9B
  8
0
 10
5.99999999999995
 20
32.88000000000001
 30
0.0
 40
6.000000000000005
 50
180.0
 51
270.0
  0
ARC
  5
9C
  8
0
 10
328.9999999999999
 20
32.87999999999999
 30
0.0
 40
5.999999999999995
 50
270.0
 51
0.0
  0
ARC
  5
9D
  8
0
 10
328.9999999999999
 20
185.88
 30
0.0
 40
6.000000000000005
 50
360.0
 51
90.0
  0
CIRCLE
  5
9E
  8
0
 10
53.74999999999997
 20
186.8800000000001
 30
0.0
 40
1.600781059358236
  0
CIRCLE
  5
9F
  8
0
 10
167.4999999999999
 20
186.8800000000001
 30
0.0
 40
1.600781059358231
  0
CIRCLE
  5
A0
  8
0
 10
281.2499999999998
 20
186.8800000000001
 30
0.0
 40
1.600781059358236
  0
CIRCLE
  5
A1
  8
0
 10
281.2499999999998
 20
31.87999999999998
 30
0.0
 40
1.600781059358236
  0
CIRCLE
  5
A2
  8
0
 10
167.4999999999999
 20
31.87999999999998
 30
0.0
 40
1.600781059358236
  0
CIRCLE
  5
A3
  8
0
 10
53.74999999999996
 20
31.87999999999999
 30
0.0
 40
1.6
  0
LINE
  5
A4
  8
0
 10
7.999999999999953
 20
36.88
 30
0.0
 11
7.999999999999956
 21
181.8800000000001
 31
0.0
  0
LINE
  5
A5
  8
0
 10
7.999999999999956
 20
181.8800000000001
 30
0.0
 11
326.9999999999999
 21
181.8800000000001
 31
0.0
  0
LINE
  5
A6
  8
0
 10
326.9999999999999
 20
181.8800000000001
 30
0.0
 11
326.9999999999999
 21
36.88
 31
0.0
  0
LINE
  5
A7
  8
0
 10
326.9999999999999
 20
36.88
 30
0.0
 11
7.999999999999896
 21
36.88
 31
0.0
  0
CIRCLE
  5
A8
  8
0
 10
3.999999999999952
 20
161.88
 30
0.0
 40
1.6
  0
CIRCLE
  5
A9
  8
0
 10
3.99999999999995
 20
56.88
 30
0.0
 40
1.6
  0
CIRCLE
  5
AA
  8
0
 10
330.9999999999999
 20
161.88
 30
0.0
 40
1.6
  0
CIRCLE
  5
AB
  8
0
 10
330.9999999999999
 20
56.88
 30
0.0
 40
1.6
  0
CIRCLE
  5
AC
  8
0
 10
4.50000000000001
 20
335.0
 30
0.0
 40
1.6
  0
CIRCLE
  5
AD
  8
0
 10
331.0
 20
335.0
 30
0.0
 40
1.600781059358236
  0
CIRCLE
  5
AE
  8
0
 10
331.0
 20
230.0
 30
0.0
 40
1.600781059358236
  0
CIRCLE
  5
AF
  8
0
 10
4.000000000000006
 20
230.0
 30
0.0
 40
1.599999999999995
  0
LINE
  5
B0
  8
0
 10
17.40999999999992
 20
178.05
 30
0.0
 11
91.40999999999994
 21
178.05
 31
0.0
  0
LINE
  5
B1
  8
0
 10
92.09999999999992
 20
37.94
 30
0.0
 11
18.09999999999993
 21
37.94
 31
0.0
  0
ARC
  5
B2
  8
0
 10
17.40999999999992
 20
172.05
 30
0.0
 40
6.000000000000005
 50
90.0
 51
180.0
  0
ARC
  5
B3
  8
0
 10
18.09999999999993
 20
43.94
 30
0.0
 40
6.000000000000005
 50
180.0
 51
270.0
  0
CIRCLE
  5
B4
  8
0
 10
65.15999999999994
 20
173.05
 30
0.0
 40
1.600781059358236
  0
CIRCLE
  5
B5
  8
0
 10
65.84999999999995
 20
42.93999999999995
 30
0.0
 40
1.6
  0
LINE
  5
B6
  8
0
 10
19.40999999999993
 20
168.05
 30
0.0
 11
91.40999999999994
 21
168.05
 31
0.0
  0
LINE
  5
B7
  8
0
 10
92.1
 20
47.94000000000001
 30
0.0
 11
20.09999999999995
 21
47.94000000000001
 31
0.0
  0
CIRCLE
  5
B8
  8
0
 10
15.40999999999992
 20
148.05
 30
0.0
 40
1.6
  0
CIRCLE
  5
B9
  8
0
 10
16.09999999999993
 20
67.93999999999997
 30
0.0
 40
1.6
  0
LINE
  5
BA
  8
0
 10
11.40999999999992
 20
128.05
 30
0.0
 11
19.40999999999993
 21
128.05
 31
0.0
  0
LINE
  5
BB
  8
0
 10
91.40999999999994
 20
168.05
 30
0.0
 11
91.40999999999994
 21
178.05
 31
0.0
  0
LINE
  5
BC
  8
0
 10
12.09999999999993
 20
87.93999999999998
 30
0.0
 11
20.09999999999994
 21
87.93999999999998
 31
0.0
  0
LINE
  5
BD
  8
0
 10
92.09999999999995
 20
47.94000000000001
 30
0.0
 11
92.09999999999995
 21
37.94
 31
0.0
  0
LINE
  5
BE
  8
0
 10
20.09999999999993
 20
47.94000000000001
 30
0.0
 11
20.09999999999993
 21
87.93999999999998
 31
0.0
  0
LINE
  5
BF
  8
0
 10
19.40999999999993
 20
128.05
 30
0.0
 11
19.40999999999993
 21
168.0500000000001
 31
0.0
  0
LINE
  5
C0
  8
0
 10
12.09999999999993
 20
43.94
 30
0.0
 11
12.09999999999993
 21
87.93999999999998
 31
0.0
  0
LINE
  5
C1
  8
0
 10
11.40999999999992
 20
128.05
 30
0.0
 11
11.40999999999992
 21
172.05
 31
0.0
  0
LINE
  5
C2
  8
0
 10
318.8599999999998
 20
37.74999999999986
 30
0.0
 11
244.8599999999998
 21
37.74999999999985
 31
0.0
  0
LINE
  5
C3
  8
0
 10
243.0299999999998
 20
178.0499999999999
 30
0.0
 11
317.0299999999998
 21
178.0499999999999
 31
0.0
  0
ARC
  5
C4
  8
0
 10
318.8599999999998
 20
43.74999999999986
 30
0.0
 40
6.000000000000005
 50
270.0
 51
0.0
  0
ARC
  5
C5
  8
0
 10
317.0299999999998
 20
172.0499999999999
 30
0.0
 40
6.000000000000005
 50
0.0000000000000127
 51
90.00000000000001
  0
CIRCLE
  5
C6
  8
0
 10
271.1099999999998
 20
42.74999999999981
 30
0.0
 40
1.600781059358236
  0
CIRCLE
  5
C7
  8
0
 10
269.2799999999999
 20
173.0499999999999
 30
0.0
 40
1.6
  0
LINE
  5
C8
  8
0
 10
316.8599999999998
 20
47.74999999999982
 30
0.0
 11
244.8599999999998
 21
47.74999999999981
 31
0.0
  0
LINE
  5
C9
  8
0
 10
243.0299999999998
 20
168.0499999999998
 30
0.0
 11
315.0299999999999
 21
168.0499999999998
 31
0.0
  0
CIRCLE
  5
CA
  8
0
 10
320.8599999999998
 20
67.74999999999989
 30
0.0
 40
1.6
  0
CIRCLE
  5
CB
  8
0
 10
319.0299999999998
 20
148.0499999999999
 30
0.0
 40
1.6
  0
LINE
  5
CC
  8
0
 10
324.8599999999998
 20
87.74999999999984
 30
0.0
 11
316.8599999999998
 21
87.74999999999984
 31
0.0
  0
LINE
  5
CD
  8
0
 10
244.8599999999999
 20
47.74999999999982
 30
0.0
 11
244.8599999999999
 21
37.74999999999986
 31
0.0
  0
LINE
  5
CE
  8
0
 10
323.0299999999998
 20
128.0499999999999
 30
0.0
 11
315.0299999999998
 21
128.0499999999999
 31
0.0
  0
LINE
  5
CF
  8
0
 10
243.0299999999999
 20
168.0499999999999
 30
0.0
 11
243.0299999999999
 21
178.0499999999999
 31
0.0
  0
LINE
  5
D0
  8
0
 10
315.0299999999998
 20
168.0499999999999
 30
0.0
 11
315.0299999999998
 21
128.0499999999999
 31
0.0
  0
LINE
  5
D1
  8
0
 10
316.8599999999998
 20
87.74999999999984
 30
0.0
 11
316.8599999999998
 21
47.74999999999978
 31
0.0
  0
LINE
  5
D2
  8
0
 10
323.0299999999998
 20
172.0499999999999
 30
0.0
 11
323.0299999999998
 21
128.0499999999999
 31
0.0
  0
LINE
  5
D3
  8
0
 10
324.8599999999998
 20
87.74999999999984
 30
0.0
 11
324.8599999999998
 21
43.74999999999983
 31
0.0
  0
LINE
  5
D4
  8
0
 10
162.5010001000201
 20
165.41
 30
0.0
 11
58.74899989998002
 21
165.41
 31
0.0
  0
LINE
  5
D5
  8
0
 10
48.75100010002003
 20
165.41
 30
0.0
 11
22.49999999999997
 21
165.41
 31
0.0
  0
LINE
  5
D6
  8
0
 10
172.4989998999801
 20
165.41
 30
0.0
 11
276.25100010002
 21
165.41
 31
0.0
  0
LINE
  5
D7
  8
0
 10
286.24899989998
 20
165.41
 30
0.0
 11
312.5
 21
165.41
 31
0.0
  0
ENDSEC
  0
EOF
